<svg version="1.1" id="Layer_1" xmlns="http://www.w3.org/2000/svg" xmlns:xlink="http://www.w3.org/1999/xlink" x="0px" y="0px"
	 width="100%" viewBox="0 0 614 342" enable-background="new 0 0 614 342" xml:space="preserve">
<path fill="#FDFDFD" opacity="1.000000" stroke="none" 
	d="
M445.000000,343.000000 
	C296.666656,343.000000 148.833328,343.000000 1.000000,343.000000 
	C1.000000,229.000000 1.000000,115.000000 1.000000,1.000000 
	C205.666672,1.000000 410.333344,1.000000 615.000000,1.000000 
	C615.000000,115.000000 615.000000,229.000000 615.000000,343.000000 
	C558.500000,343.000000 502.000000,343.000000 445.000000,343.000000 
M318.912354,260.117950 
	C320.277893,260.066559 321.643433,260.015167 323.482544,260.297028 
	C323.664337,260.232117 323.846161,260.167236 324.803101,259.977509 
	C324.933533,251.421082 325.100494,242.864777 325.128296,234.308014 
	C325.130646,233.587921 324.198944,232.864807 323.701172,232.143112 
	C322.993469,232.837708 321.761749,233.473282 321.675598,234.237900 
	C321.408844,236.605515 321.578064,239.022247 321.578064,240.530746 
	C317.675354,240.873474 314.565460,241.146576 310.815857,241.532166 
	C310.126312,242.309250 309.436737,243.086334 308.170898,244.384918 
	C306.135895,249.272415 305.571777,254.010239 309.911407,258.962067 
	C311.533905,259.442352 313.156433,259.922607 315.594849,260.615814 
	C316.407440,260.449371 317.220001,260.282898 318.912354,260.117950 
M362.322632,240.598846 
	C360.733276,240.720612 359.128540,240.747971 357.560852,241.003006 
	C356.746460,241.135498 355.997498,241.670334 355.024170,242.938919 
	C355.018280,247.889771 354.942993,252.842422 355.071594,257.789795 
	C355.094299,258.663727 355.968323,259.515564 356.449188,260.377625 
	C357.100494,259.505402 358.219879,258.680573 358.313904,257.751923 
	C358.578522,255.137497 357.855743,252.306931 358.596619,249.891006 
	C359.277832,247.669586 360.993805,245.004715 362.943024,244.195847 
	C364.279694,243.641205 366.796326,245.930099 368.569855,247.851593 
	C368.555756,249.811523 368.347595,251.794739 368.579193,253.725204 
	C368.838318,255.885468 369.495850,257.997925 370.882721,260.288086 
	C371.007477,254.786591 371.228516,249.283554 371.140930,243.785431 
	C371.129364,243.059402 369.543671,242.358459 368.308167,241.138107 
	C367.520721,241.013489 366.733307,240.888870 365.256195,240.445984 
	C364.521301,240.553787 363.786438,240.661575 362.322632,240.598846 
M143.855347,246.339905 
	C146.031357,245.600586 148.460327,243.941147 150.294449,244.445389 
	C151.517593,244.781631 152.230637,248.148117 152.559631,250.254089 
	C152.940353,252.691223 152.474686,255.251953 152.738785,257.720276 
	C152.839905,258.665497 153.942261,259.503601 154.588348,260.390503 
	C155.073441,259.523224 155.915085,258.680756 155.977524,257.784058 
	C156.173599,254.967545 155.889130,252.113815 156.140869,249.305878 
	C156.448898,245.870316 158.491852,243.686874 162.017166,243.780548 
	C165.552170,243.874496 166.075256,246.566406 166.030273,249.475327 
	C165.986526,252.304001 165.900620,255.142288 166.095856,257.958130 
	C166.154373,258.802094 167.094025,259.584961 167.630035,260.395813 
	C168.234589,259.627502 169.309021,258.889435 169.360733,258.085541 
	C169.563324,254.936386 169.503113,251.765060 169.430450,248.604507 
	C169.274872,241.836548 163.764511,238.586319 157.668335,241.370712 
	C156.245605,242.020523 154.310257,241.548019 152.217407,241.108749 
	C151.444809,240.974823 150.672226,240.840881 149.222641,240.439148 
	C148.513321,240.532104 147.803986,240.625061 146.533524,240.493408 
	C145.712128,241.006439 144.890747,241.519470 143.494888,242.161346 
	C142.961899,241.916214 142.428909,241.671082 141.695969,240.923477 
	C141.017471,241.320633 140.338989,241.717773 139.364838,242.934952 
	C139.355606,247.934189 139.266327,252.935837 139.417389,257.930206 
	C139.442032,258.744965 140.528229,259.527618 141.123764,260.325104 
	C141.720657,259.524170 142.787384,258.747406 142.830048,257.917969 
	C142.983490,254.934540 142.791229,251.933350 143.062302,248.502487 
	C143.140076,247.966110 143.217834,247.429733 143.855347,246.339905 
M521.048218,292.719635 
	C521.332031,292.087006 521.615845,291.454376 522.227295,290.261475 
	C523.697205,288.773010 524.604797,287.301239 521.992737,286.056458 
	C517.544678,283.936737 512.765991,283.332397 508.718048,286.135559 
	C506.968353,287.347137 505.289978,291.807312 506.132751,293.025970 
	C508.641479,296.653809 507.807526,299.134644 504.976837,301.673431 
	C508.719086,305.781677 513.338562,305.984924 517.684021,305.062012 
	C520.013855,304.567169 522.674744,302.418396 523.803284,300.284515 
	C525.252136,297.545074 523.658997,294.837585 521.048218,292.719635 
M546.108032,298.649841 
	C546.781128,297.854614 547.454285,297.059357 548.262207,295.397583 
	C546.989746,292.323029 546.441833,288.536285 544.279480,286.336395 
	C540.803650,282.800262 533.106567,284.072906 529.825562,287.847473 
	C526.310059,291.891968 526.690247,299.253937 530.600525,302.853668 
	C534.241577,306.205505 542.516724,306.449188 545.750183,303.027130 
	C546.390686,302.349304 545.831177,300.537628 546.108032,298.649841 
M148.755646,95.392578 
	C148.779816,81.566788 148.814423,67.741013 148.824051,53.915211 
	C148.829437,46.170879 148.513077,45.881363 140.554291,45.878334 
	C137.555862,45.877193 134.557419,45.874165 131.558990,45.878296 
	C124.629784,45.887836 124.105957,46.396561 124.076965,53.204269 
	C124.015961,67.527435 123.961693,81.850632 123.229042,95.772598 
	C122.574989,95.264267 121.866600,94.812050 121.274994,94.239235 
	C111.609207,84.880638 101.904419,75.561234 92.334373,66.105492 
	C89.187172,62.995876 86.375183,62.937206 83.366440,66.065659 
	C81.063881,68.459824 78.769669,70.862572 76.435318,73.225517 
	C71.819427,77.897964 71.876572,78.870590 76.604553,83.743141 
	C86.429070,93.868057 96.194656,104.050156 105.263184,114.464378 
	C104.102898,114.525085 102.942444,114.641586 101.782356,114.637962 
	C88.810501,114.597466 75.838745,114.512428 62.866875,114.494934 
	C55.964619,114.485626 55.284016,115.234154 55.276276,122.306885 
	C55.272453,125.799629 55.471977,129.306137 55.228367,132.781799 
	C54.887547,137.644348 57.131596,139.235809 61.742180,139.187256 
	C76.376900,139.033096 91.014015,139.106598 105.343513,139.761703 
	C104.413330,140.907196 103.573746,142.142746 102.538719,143.184036 
	C93.738655,152.037354 84.909904,160.862213 76.075569,169.681396 
	C70.594452,175.153122 70.606201,176.069473 76.206100,181.126495 
	C78.057953,182.798813 79.837471,184.551559 81.640892,186.277115 
	C87.271049,191.664215 88.235306,191.594772 93.864853,186.158127 
	C103.787735,176.575287 113.789375,167.074005 123.999336,158.508606 
	C124.028900,172.833923 124.106613,187.159409 124.057777,201.484451 
	C124.043701,205.613861 125.094719,208.277908 129.970413,207.971222 
	C133.786835,207.731186 137.630417,207.927872 141.461929,207.922287 
	C148.136780,207.912552 148.773376,207.277908 148.805771,200.425644 
	C148.873474,186.102966 148.921127,171.780167 149.610168,157.821426 
	C150.378967,158.452164 151.199020,159.030273 151.908783,159.721619 
	C161.329178,168.897461 170.717209,178.106583 180.150848,187.268753 
	C184.112579,191.116455 185.916794,191.146225 189.830505,187.384445 
	C191.866364,185.427658 193.679199,183.240875 195.635101,181.198502 
	C201.317490,175.264923 201.250305,175.164856 195.553680,169.262238 
	C185.979599,159.341949 176.510391,149.320419 167.927765,139.230377 
	C182.409500,139.197189 196.891907,139.075180 211.372574,139.183853 
	C215.832916,139.217316 217.848114,137.520996 217.634888,132.997009 
	C217.462646,129.342850 217.608261,125.674019 217.600998,122.011719 
	C217.587738,115.327972 216.782623,114.468735 210.205109,114.451866 
	C195.722870,114.414711 181.240509,114.421188 167.176071,113.770477 
	C177.113815,103.512932 186.988052,93.192642 197.026291,83.034393 
	C200.216827,79.805717 200.836060,77.074791 197.117188,73.869102 
	C194.988541,72.034225 193.206085,69.801605 191.230667,67.784393 
	C185.769577,62.207821 184.605286,62.261326 179.100983,67.548195 
	C169.047470,77.204575 158.908386,86.771881 148.755646,95.392578 
M574.159607,130.500076 
	C574.159607,112.002274 574.200867,93.504341 574.146423,75.006699 
	C574.103943,60.566521 575.979553,62.088718 560.996094,62.041920 
	C554.314514,62.021057 553.885864,62.469383 553.884644,69.150459 
	C553.879456,96.647530 553.884583,124.144592 553.885864,151.641663 
	C553.885925,153.216919 553.885803,154.792175 553.885803,156.367432 
	C551.869507,154.835297 550.800659,153.060165 549.812927,151.240982 
	C536.390869,126.521393 522.140808,102.200630 509.931091,76.895546 
	C504.088562,64.786606 497.016632,59.969650 484.021149,61.873711 
	C477.380890,62.846619 476.930939,62.385288 476.930206,69.071869 
	C476.926147,105.567978 476.917969,142.064087 476.933380,178.560196 
	C476.939392,192.884766 475.359680,191.689148 490.053314,191.690659 
	C496.786926,191.691345 497.230286,191.255219 497.232269,184.665100 
	C497.240204,158.501221 497.235962,132.337341 497.236206,106.173462 
	C497.236206,104.593079 497.236176,103.012695 497.236176,101.432312 
	C499.038177,102.484253 499.911835,103.792992 500.686218,105.157997 
	C514.157227,128.902939 527.620850,152.652069 541.075806,176.406067 
	C549.998108,192.157837 549.989319,192.065674 568.186035,191.760757 
	C572.707275,191.685028 574.285156,190.031693 574.237488,185.493515 
	C574.048279,167.497437 574.159607,149.498169 574.159607,130.500076 
M273.727295,171.173538 
	C272.571655,170.424759 270.428467,169.699127 270.410309,168.923706 
	C270.181854,159.171051 270.260345,149.411209 270.260345,139.177795 
	C282.231415,139.177795 293.528229,139.190979 304.824982,139.174591 
	C320.436279,139.151932 318.952118,140.876312 319.062805,124.446503 
	C319.091339,120.211174 317.278442,118.366325 313.065308,118.420410 
	C305.401978,118.518814 297.736481,118.446922 290.071869,118.446510 
	C283.619141,118.446167 277.166382,118.446442 270.499634,118.446442 
	C270.499634,106.278610 270.499634,94.697945 270.499634,82.567482 
	C272.533051,82.567482 274.322723,82.567413 276.112427,82.567497 
	C289.775421,82.568130 303.438416,82.571724 317.101410,82.568665 
	C332.681915,82.565178 330.973846,83.976448 331.011261,68.659325 
	C331.025787,62.698814 330.357239,62.033154 324.444916,62.028439 
	C301.784332,62.010368 279.123749,62.009014 256.463165,62.028713 
	C250.501907,62.033894 249.928116,62.636372 249.926971,68.640999 
	C249.919647,107.463913 249.919617,146.286835 249.927200,185.109741 
	C249.928360,191.068405 250.518890,191.690109 256.474213,191.697052 
	C278.301666,191.722519 300.129150,191.711578 321.956635,191.713196 
	C336.848694,191.714294 335.049347,192.869858 335.111023,178.649048 
	C335.139954,171.974274 334.346680,171.185059 327.669434,171.178513 
	C310.007507,171.161179 292.345581,171.173859 273.727295,171.173538 
M439.601349,184.123306 
	C441.180298,182.642563 442.811188,181.213058 444.329987,179.673019 
	C456.715454,167.114212 457.434143,139.068893 437.944885,128.531525 
	C431.737000,125.175072 424.849396,122.870522 418.040558,120.878654 
	C407.685638,117.849419 397.013672,115.888557 386.698029,112.746155 
	C380.091400,110.733620 375.370514,106.050552 375.437683,98.499336 
	C375.503113,91.138443 379.534760,86.039902 385.935028,82.730072 
	C399.809448,75.555016 418.925964,78.637871 429.892365,89.789322 
	C437.887695,97.919571 437.887756,97.919647 447.094086,90.733086 
	C447.488098,90.425545 447.856842,90.080009 448.274384,89.809258 
	C451.834259,87.500854 452.201782,84.673546 449.592041,81.427582 
	C448.133911,79.613976 446.693695,77.761986 445.045807,76.128723 
	C429.575684,60.796101 401.988647,55.910351 380.742249,64.622093 
	C370.754486,68.717415 363.157471,75.378754 358.775787,85.306061 
	C352.988892,98.417145 353.613953,119.855515 373.703918,129.004135 
	C379.262848,131.535568 385.131378,133.514450 391.021118,135.163879 
	C401.256897,138.030380 411.729340,140.082581 421.890747,143.172729 
	C428.663055,145.232239 433.493195,149.754074 433.399017,157.681641 
	C433.315002,164.756012 429.089264,170.329605 421.217041,173.025925 
	C409.454468,177.054749 397.611694,177.028076 386.108002,172.137085 
	C382.676178,170.677948 379.362061,168.386047 376.713867,165.751984 
	C370.639191,159.709778 370.818665,159.528214 363.855438,164.716675 
	C362.920471,165.413345 361.988586,166.114365 361.063507,166.824081 
	C355.670105,170.961929 355.752075,172.505112 360.219330,177.556961 
	C380.056793,199.990417 422.226624,197.925613 439.601349,184.123306 
M373.314301,282.475647 
	C375.476471,289.960144 377.638641,297.444641 379.805389,304.945007 
	C382.616760,304.945007 385.072021,304.945007 387.791351,304.945007 
	C389.164368,299.509460 390.510284,294.181305 392.176392,287.585419 
	C393.820007,294.334045 395.105103,299.610596 396.389191,304.883118 
	C399.174622,304.883118 401.590668,304.883118 404.252747,304.883118 
	C406.771973,296.047272 409.241699,287.385040 411.775482,278.498169 
	C408.858582,278.498169 406.779144,278.498169 404.677185,278.498169 
	C403.229156,284.520203 401.850769,290.252563 400.472412,295.984894 
	C400.155640,295.962341 399.838867,295.939758 399.522095,295.917175 
	C398.097961,290.052429 396.673798,284.187683 395.295807,278.513000 
	C392.897858,278.513000 390.983887,278.513000 388.978668,278.513000 
	C387.512604,284.463226 386.117828,290.124084 384.723053,295.784943 
	C382.651703,291.791290 381.754639,287.858795 380.933868,283.910461 
	C379.588654,277.439056 379.550751,277.397797 372.598328,278.834808 
	C372.757202,279.793488 372.918121,280.764496 373.314301,282.475647 
M416.188843,296.441162 
	C416.188843,299.206940 416.188843,301.972717 416.188843,305.136322 
	C420.868042,305.136322 425.061188,305.627625 429.072327,304.984192 
	C432.410950,304.448669 436.914307,303.423706 438.359833,301.060577 
	C439.750214,298.787720 437.878540,294.519409 437.417511,290.952484 
	C437.682617,288.500824 439.129272,285.009735 437.995514,282.915741 
	C436.783691,280.677521 433.276062,278.899872 430.523102,278.456116 
	C426.045441,277.734406 421.366516,278.261475 416.188843,278.261475 
	C416.188843,284.281097 416.188843,289.868164 416.188843,296.441162 
M370.189758,285.668213 
	C370.189758,283.365723 370.189758,281.063232 370.189758,278.472565 
	C367.676758,278.472565 365.614227,278.472565 363.041016,278.472565 
	C363.041016,283.646179 362.967529,288.605194 363.066650,293.560760 
	C363.133636,296.910278 362.486298,299.767944 358.511230,299.932434 
	C354.191132,300.111206 353.389771,297.078400 353.398590,293.561401 
	C353.411011,288.595581 353.401733,283.629669 353.401733,278.480469 
	C350.831940,278.480469 348.763824,278.480469 346.343140,278.480469 
	C346.343140,284.732941 345.942413,290.725677 346.451813,296.640015 
	C347.000580,303.011871 351.566589,305.700012 359.775299,305.361298 
	C366.165771,305.097595 369.858429,301.695129 370.160889,295.600616 
	C370.309326,292.609131 370.188446,289.604248 370.189758,285.668213 
M462.351318,303.961578 
	C462.351318,301.510284 462.351318,299.059021 462.351318,296.166473 
	C464.864197,296.166473 466.833557,296.263733 468.790314,296.148071 
	C474.505676,295.810242 477.744080,292.752441 477.919220,287.646759 
	C478.096039,282.492401 475.188538,278.979797 469.510620,278.447510 
	C464.976776,278.022461 460.371277,278.361694 455.747009,278.361694 
	C455.747009,287.530853 455.747009,296.210632 455.747009,305.236786 
	C458.097382,305.068207 460.051331,304.928070 462.351318,303.961578 
M560.783447,290.533356 
	C564.323303,288.927155 565.303955,290.873108 565.356018,293.910156 
	C565.417908,297.525330 565.370605,301.142395 565.370605,304.797852 
	C567.928711,304.797852 569.978699,304.797852 572.223816,304.797852 
	C572.223816,300.652588 572.239075,296.842621 572.220581,293.032806 
	C572.182983,285.281830 568.068787,282.621033 560.962646,285.684357 
	C560.241150,285.995361 559.319702,286.172119 558.568787,286.022156 
	C556.514771,285.611908 554.502197,284.993805 552.229614,284.393677 
	C552.229614,291.773834 552.229614,298.195679 552.229614,304.746857 
	C554.613953,304.746857 556.782959,304.746857 559.167725,304.746857 
	C559.167725,302.210876 559.048157,300.053802 559.200378,297.916077 
	C559.362061,295.646301 559.781616,293.394897 560.783447,290.533356 
M421.590210,244.804840 
	C424.331604,249.176819 426.904633,253.669556 429.906464,257.854736 
	C430.945129,259.302887 433.049042,259.987000 435.749725,261.712128 
	C435.749725,252.412521 435.814270,244.947891 435.668549,237.487381 
	C435.650208,236.549164 434.524750,235.632599 433.912262,234.705994 
	C433.340942,235.676773 432.308502,236.632294 432.275818,237.620911 
	C432.108307,242.685135 432.198303,247.757858 432.198303,252.827621 
	C427.890320,247.812851 424.436646,242.639084 421.274811,237.292709 
	C419.700073,234.629929 417.993652,233.824646 415.213959,235.433487 
	C415.213959,242.506424 415.126648,249.500595 415.290558,256.488861 
	C415.321838,257.822876 416.344574,259.133575 416.909882,260.455048 
	C417.532715,259.178558 418.634552,257.923492 418.692749,256.621765 
	C418.907928,251.810684 418.778351,246.984207 418.778351,242.163513 
	C419.133575,242.148788 419.488800,242.134064 419.843994,242.119339 
	C420.276520,242.801041 420.709015,243.482758 421.590210,244.804840 
M492.419525,258.788940 
	C493.748810,254.904404 495.078064,251.019882 496.728363,246.197159 
	C498.377869,250.682190 499.773132,254.353607 501.075684,258.057648 
	C502.050690,260.830231 504.485870,261.827911 505.646240,259.330292 
	C508.313843,253.588455 509.981934,247.382217 512.055664,241.364441 
	C511.487488,241.083160 510.919342,240.801880 510.351196,240.520599 
	C505.022736,242.840073 507.285461,249.923691 503.262573,253.740509 
	C501.974701,250.183136 500.900116,246.774475 499.475220,243.519196 
	C498.979706,242.387177 497.617584,241.634506 496.651276,240.708557 
	C495.851379,241.621780 494.741089,242.408890 494.309357,243.471664 
	C492.971375,246.765060 491.891449,250.163284 490.598328,253.842545 
	C486.569244,250.033035 488.737183,242.823563 482.468414,241.182770 
	C483.790955,247.336624 485.704102,253.135910 488.011139,258.773987 
	C488.286499,259.446960 490.706726,259.242310 492.419525,258.788940 
M240.626480,240.919617 
	C240.058960,245.202194 242.254944,247.427353 246.168579,248.397781 
	C248.580750,248.995911 251.097260,249.369034 253.348434,250.346390 
	C254.672287,250.921158 255.568344,252.481247 256.656830,253.598129 
	C255.419876,254.761108 254.081772,256.997345 252.964401,256.891998 
	C249.141571,256.531647 245.396255,255.348816 240.631393,254.251755 
	C240.787125,254.960434 240.621201,256.860077 241.475128,257.633026 
	C245.238586,261.039490 249.869263,261.487061 254.584503,260.193329 
	C257.809082,259.308533 260.166199,257.415741 260.287323,253.564514 
	C260.409637,249.673676 258.294464,247.803848 254.896164,246.873352 
	C252.183517,246.130585 249.359100,245.660294 246.796097,244.570816 
	C245.706985,244.107849 244.465500,242.313370 244.557770,241.231934 
	C244.651840,240.129318 246.384796,238.216599 247.250900,238.295563 
	C250.847839,238.623566 254.388397,239.569962 257.949646,240.289413 
	C258.764221,240.882141 259.708923,238.988113 259.578613,238.910980 
	C256.833374,237.286697 254.099960,235.118362 251.092834,234.584061 
	C246.620682,233.789474 242.430267,235.058472 240.626480,240.919617 
M66.432945,257.005096 
	C63.988483,257.005096 61.544025,257.005096 59.219826,257.005096 
	C59.219826,254.093552 59.219826,251.709137 59.219826,249.372040 
	C69.379021,248.581482 69.379021,248.581482 69.717079,245.847336 
	C67.875275,245.847336 66.075745,245.847321 64.276222,245.847321 
	C62.530075,245.847321 60.783932,245.847336 59.099403,245.847336 
	C59.099403,242.880875 59.099403,240.614578 59.099403,237.948715 
	C61.960072,237.948715 64.580757,237.948776 67.201439,237.948715 
	C72.583405,237.948578 72.583405,237.948547 72.829552,234.960205 
	C67.068138,234.960205 61.316322,234.960205 55.452446,234.960205 
	C55.452446,243.457001 55.452446,251.692490 55.452446,260.452515 
	C59.617756,260.452515 63.582207,260.657990 67.510635,260.370728 
	C69.659096,260.213654 71.746628,259.223267 73.861626,258.608643 
	C71.700165,258.074127 69.538704,257.539612 66.432945,257.005096 
M499.599762,293.365540 
	C499.599762,287.755768 499.599762,282.145996 499.599762,276.483215 
	C497.064667,276.483215 495.145782,276.483215 492.783600,276.483215 
	C492.783600,284.706604 492.674164,292.652008 492.830750,300.592133 
	C492.906616,304.439209 495.568939,305.437531 499.009399,305.408691 
	C501.915283,305.384369 503.900604,304.735474 503.266785,300.990356 
	C498.678253,300.683685 499.715424,297.201111 499.599762,293.365540 
M567.677856,256.734436 
	C570.502502,260.680450 570.502502,260.680450 573.980713,259.519562 
	C573.739868,259.088135 573.555237,258.623718 573.259155,258.246796 
	C568.922424,252.725937 564.543274,247.218018 572.537598,241.173035 
	C572.547729,241.165421 572.434692,240.994904 571.808228,239.929443 
	C568.047058,242.965164 564.420227,245.892456 560.082642,249.393356 
	C560.082642,244.028671 560.189148,239.575577 560.002319,235.134827 
	C559.959473,234.116379 558.907471,233.140381 558.319885,232.144836 
	C557.656311,233.079773 556.436462,234.003311 556.417053,234.951447 
	C556.260010,242.610245 556.276245,250.274536 556.402893,257.934448 
	C556.416870,258.775452 557.459778,259.599396 558.025452,260.431244 
	C558.709839,259.559631 559.557983,258.770111 560.044495,257.799347 
	C561.056885,255.779419 561.877869,253.663498 563.207947,250.593353 
	C565.124268,253.220642 566.177673,254.664871 567.677856,256.734436 
M331.207092,252.987137 
	C332.081909,257.662476 334.817749,260.435211 339.612122,260.758728 
	C343.340515,261.010315 346.823578,260.433075 348.877197,255.826385 
	C344.164368,254.438248 337.161926,261.964081 334.941681,251.898605 
	C338.082794,251.898605 340.886475,252.047409 343.664795,251.846207 
	C345.511353,251.712479 347.321747,251.078537 349.148285,250.668503 
	C348.574860,248.320221 348.566742,245.567368 347.261139,243.743088 
	C346.073242,242.083282 343.577576,240.785660 341.481018,240.455933 
	C334.800201,239.405273 331.221008,243.662720 331.207092,252.987137 
M96.883499,259.820312 
	C102.336868,259.820312 107.790237,259.820312 112.269707,259.820312 
	C111.605911,256.398254 110.942245,253.330704 110.443336,250.236588 
	C110.233894,248.937637 110.434410,247.578247 110.342659,246.253662 
	C110.039307,241.874268 106.674019,241.229996 103.390755,241.034882 
	C99.738152,240.817856 96.336555,241.598175 94.022156,246.302139 
	C99.159035,245.648224 103.881310,240.629242 107.268456,247.900803 
	C105.511658,248.369217 104.274490,248.717361 103.027718,249.026764 
	C101.584747,249.384842 100.056023,249.521591 98.699570,250.081558 
	C93.996910,252.022980 93.239243,255.077438 96.883499,259.820312 
M458.985840,255.825974 
	C457.747009,256.053619 456.369751,256.009094 455.293518,256.556427 
	C450.835785,258.823486 447.284882,257.179932 446.278900,251.847961 
	C450.792542,251.847961 455.242371,251.847961 459.611481,251.847961 
	C460.618591,245.611115 458.567535,241.798859 453.842468,240.591644 
	C449.031769,239.362564 444.490387,241.524963 442.735535,245.880234 
	C440.621063,251.128143 442.330353,257.189270 446.607635,259.610626 
	C451.112244,262.160675 456.550476,260.819427 458.985840,255.825974 
M517.766907,243.329895 
	C513.396851,250.501617 515.252197,258.452423 521.745056,260.377350 
	C526.366577,261.747498 531.107056,260.158875 533.153503,256.554199 
	C535.547852,252.336746 534.768921,245.547440 531.555237,242.623947 
	C528.126831,239.505142 523.132629,239.562897 517.766907,243.329895 
M208.237839,260.718872 
	C212.109344,260.338531 215.205322,258.789246 215.170242,254.439148 
	C215.136917,250.307983 211.584549,249.863617 208.499100,249.040588 
	C206.602600,248.534668 204.795807,247.692444 202.792084,246.942612 
	C206.497086,240.063309 211.006760,248.017960 214.914795,245.234589 
	C213.849579,243.976578 213.158783,242.847733 212.185745,242.073654 
	C209.801544,240.176895 202.810211,240.741669 200.809296,242.861496 
	C197.887161,245.957291 199.740250,250.242371 204.629364,251.860382 
	C207.040634,252.658356 209.396423,253.623932 212.020981,254.604691 
	C207.619324,261.249084 202.792419,253.344818 198.851242,256.041443 
	C198.736053,256.676300 198.620865,257.311157 198.505661,257.946045 
	C201.483627,258.886414 204.461594,259.826782 208.237839,260.718872 
M298.395294,260.301971 
	C299.109375,259.673767 300.419586,259.066589 300.442627,258.413940 
	C300.618683,253.432495 300.620941,248.439926 300.476410,243.456650 
	C300.450043,242.547058 299.506897,241.664032 298.986938,240.768753 
	C298.324615,241.675751 297.180573,242.537796 297.090942,243.498215 
	C296.829407,246.300583 297.017670,249.142685 296.976562,251.968430 
	C296.922180,255.707565 294.734406,257.338043 291.250977,257.411102 
	C287.605621,257.487549 286.934204,255.015991 286.947144,252.056885 
	C286.958771,249.396896 287.128754,246.718521 286.863007,244.085175 
	C286.746124,242.927261 285.721649,241.860977 285.109253,240.753098 
	C284.519073,241.916214 283.519012,243.045532 283.419800,244.249130 
	C283.174744,247.221313 283.253784,250.230820 283.363922,253.219376 
	C283.566620,258.718994 286.698730,261.351379 292.155640,260.682068 
	C294.032776,260.451813 295.893494,260.087433 298.395294,260.301971 
M117.849197,257.662842 
	C121.106430,261.184113 125.305748,261.650360 129.316772,260.028351 
	C131.207901,259.263611 133.226624,256.601898 133.434067,254.616562 
	C133.587982,253.143570 131.056824,251.211975 129.440018,249.809357 
	C128.665939,249.137848 127.105110,249.454529 126.138008,248.905502 
	C124.620857,248.044189 123.304741,246.828781 121.903488,245.763321 
	C123.818199,245.210709 125.718437,244.591888 127.661095,244.167023 
	C128.007721,244.091217 128.490967,245.044296 128.979553,245.129379 
	C130.007736,245.308441 131.081299,245.226929 132.136230,245.252350 
	C131.674637,244.214722 131.320709,242.354034 130.733429,242.277206 
	C127.641106,241.872681 124.365440,241.326736 121.389442,241.952469 
	C117.347084,242.802414 116.458412,247.643326 119.718399,250.117706 
	C121.236565,251.269989 123.403320,251.525711 125.145988,252.436691 
	C126.733337,253.266479 128.144775,254.432816 129.633743,255.450790 
	C127.614296,256.038757 125.622139,256.874847 123.562935,257.101288 
	C122.648163,257.201904 121.606445,255.639191 120.607132,255.619904 
	C119.562004,255.599701 118.498581,256.526520 117.849197,257.662842 
M474.274384,240.650925 
	C472.732239,239.333588 471.190094,238.016251 468.984650,236.132324 
	C467.642883,237.744904 465.669647,240.116425 463.696381,242.487930 
	C464.167725,242.422836 464.639069,242.357727 465.110413,242.292618 
	C465.815552,245.161011 466.634094,248.007980 467.181244,250.906219 
	C467.484833,252.514359 467.158905,254.236908 467.423859,255.857681 
	C468.132355,260.191956 472.716827,262.342041 476.484070,260.094391 
	C477.170990,259.684540 477.460968,258.609314 477.934235,257.841248 
	C477.150940,257.519928 476.272095,256.788361 475.600128,256.944916 
	C471.716125,257.849884 470.938232,255.705261 470.964508,252.570740 
	C470.987427,249.832764 470.969299,247.094452 470.969299,244.274307 
	C472.940216,244.175125 474.147064,244.321976 475.213318,244.001251 
	C476.238434,243.692886 477.117950,242.900543 478.061462,242.320862 
	C477.085876,241.764862 476.110291,241.208862 474.274384,240.650925 
M266.268829,240.636368 
	C266.015320,241.736679 265.761841,242.837006 265.508362,243.937332 
	C268.982971,244.000351 268.106262,246.605011 268.174011,248.590210 
	C268.247467,250.743225 268.090881,252.906418 268.213959,255.054901 
	C268.483582,259.761261 272.112946,262.115295 276.506744,260.363312 
	C277.417694,260.000061 278.041077,258.915588 278.796967,258.163513 
	C277.888733,257.756287 276.900787,256.884155 276.086304,257.023773 
	C272.865417,257.575958 271.872925,256.080780 271.919647,253.199631 
	C271.966980,250.281738 271.930084,247.362473 271.930084,244.319611 
	C273.614929,244.200684 274.657288,244.333527 275.535126,244.014221 
	C276.698456,243.591064 277.733215,242.814529 278.823212,242.189819 
	C277.772675,241.677292 276.764496,241.022385 275.659332,240.693283 
	C274.608734,240.380417 273.456696,240.408142 272.360992,240.287399 
	C272.027191,238.611954 271.752167,237.231522 271.477142,235.851089 
	C271.020660,235.659073 270.564148,235.467056 270.107635,235.275040 
	C269.081635,237.017700 268.055634,238.760361 266.268829,240.636368 
M377.328156,243.799576 
	C379.928284,243.840088 380.600952,245.296021 380.499939,247.686066 
	C380.374298,250.659012 379.840607,253.915680 380.838470,256.533081 
	C381.545349,258.387177 384.343475,259.940308 386.511047,260.548981 
	C387.747040,260.896027 389.590881,259.078247 391.161011,258.235229 
	C390.902435,257.835938 390.643860,257.436615 390.385284,257.037292 
	C383.595428,257.224213 382.296539,254.314011 384.543640,245.011414 
	C386.957855,243.995682 388.989777,243.140793 391.021698,242.285904 
	C388.922882,241.480545 386.824036,240.675186 384.235413,239.681900 
	C384.215363,239.533035 384.130798,238.740402 383.996368,237.956329 
	C383.871552,237.228241 383.693512,236.509277 383.229797,234.340805 
	C380.599945,237.962387 378.659760,240.634201 377.328156,243.799576 
M488.707550,294.539886 
	C488.707550,291.430542 488.707550,288.321167 488.707550,285.197876 
	C486.014648,285.197876 483.838104,285.197876 481.899445,285.197876 
	C481.899445,292.049591 481.899445,298.443604 481.899445,304.772034 
	C484.310944,304.772034 486.357239,304.772034 488.707001,304.772034 
	C488.707001,301.442780 488.707001,298.471313 488.707550,294.539886 
M182.528534,258.017426 
	C181.359283,256.290100 179.463501,254.674500 179.177032,252.811432 
	C178.636047,249.293091 179.020767,245.632401 179.020767,242.030884 
	C177.360474,242.269211 176.126007,243.065125 176.077637,243.927551 
	C175.863953,247.737518 175.770737,251.583450 176.060028,255.383911 
	C176.330414,258.936035 181.055405,261.770630 184.606796,260.966400 
	C187.259857,260.365570 189.950195,259.929474 193.123917,259.324768 
	C193.123917,254.667633 193.204971,249.368484 193.055954,244.075821 
	C193.025940,243.009537 192.123260,241.967804 191.622925,240.914749 
	C191.006470,242.050842 190.141983,243.125702 189.842224,244.339981 
	C189.532867,245.593170 189.640076,246.997757 189.795975,248.308640 
	C190.402390,253.408020 188.947067,257.064575 182.528534,258.017426 
M90.758202,241.669632 
	C89.308380,241.288696 87.859909,240.605499 86.408424,240.599030 
	C84.332268,240.589752 82.253906,241.075333 79.204445,241.477921 
	C79.204445,246.816437 79.148682,252.720779 79.285324,258.620667 
	C79.300003,259.254028 80.435669,260.348175 81.048912,260.346558 
	C81.684578,260.344788 82.655869,259.369568 82.871384,258.640167 
	C83.188393,257.567261 83.029892,256.330872 82.961029,255.170837 
	C82.622322,249.464859 82.515274,243.933807 90.347778,243.300140 
	C90.513939,243.286697 90.637093,242.741592 90.758202,241.669632 
M544.098755,248.195145 
	C545.738586,246.789703 547.381348,245.387680 549.017151,243.977478 
	C549.933411,243.187531 550.838135,242.384140 551.748108,241.586838 
	C550.444885,241.194824 549.130554,240.448685 547.840881,240.489029 
	C545.585449,240.559601 543.345154,241.113449 540.235046,241.599792 
	C540.235046,246.776093 540.161865,252.531265 540.324341,258.279755 
	C540.345520,259.030273 541.578308,259.746521 542.249878,260.478607 
	C542.822937,259.665405 543.828735,258.883759 543.890808,258.033264 
	C544.107849,255.058090 543.999268,252.059189 544.098755,248.195145 
M484.639191,282.691559 
	C486.127533,281.535309 487.615906,280.379059 489.104248,279.222809 
	C488.107544,278.132965 487.208069,276.282410 486.090332,276.139526 
	C484.581757,275.946716 482.905273,277.067413 481.300842,277.624512 
	C482.157562,279.279175 483.014282,280.933838 484.639191,282.691559 
z"/>
<path fill="#030303" opacity="1.000000" stroke="none" 
	d="
M574.159607,131.000092 
	C574.159607,149.498169 574.048279,167.497437 574.237488,185.493515 
	C574.285156,190.031693 572.707275,191.685028 568.186035,191.760757 
	C549.989319,192.065674 549.998108,192.157837 541.075806,176.406067 
	C527.620850,152.652069 514.157227,128.902939 500.686218,105.157997 
	C499.911835,103.792992 499.038177,102.484253 497.236176,101.432312 
	C497.236176,103.012695 497.236206,104.593079 497.236206,106.173462 
	C497.235962,132.337341 497.240204,158.501221 497.232269,184.665100 
	C497.230286,191.255219 496.786926,191.691345 490.053314,191.690659 
	C475.359680,191.689148 476.939392,192.884766 476.933380,178.560196 
	C476.917969,142.064087 476.926147,105.567978 476.930206,69.071869 
	C476.930939,62.385288 477.380890,62.846619 484.021149,61.873711 
	C497.016632,59.969650 504.088562,64.786606 509.931091,76.895546 
	C522.140808,102.200630 536.390869,126.521393 549.812927,151.240982 
	C550.800659,153.060165 551.869507,154.835297 553.885803,156.367432 
	C553.885803,154.792175 553.885925,153.216919 553.885864,151.641663 
	C553.884583,124.144592 553.879456,96.647530 553.884644,69.150459 
	C553.885864,62.469383 554.314514,62.021057 560.996094,62.041920 
	C575.979553,62.088718 574.103943,60.566521 574.146423,75.006699 
	C574.200867,93.504341 574.159607,112.002274 574.159607,131.000092 
z"/>
<path fill="#060606" opacity="1.000000" stroke="none" 
	d="
M274.205475,171.174072 
	C292.345581,171.173859 310.007507,171.161179 327.669434,171.178513 
	C334.346680,171.185059 335.139954,171.974274 335.111023,178.649048 
	C335.049347,192.869858 336.848694,191.714294 321.956635,191.713196 
	C300.129150,191.711578 278.301666,191.722519 256.474213,191.697052 
	C250.518890,191.690109 249.928360,191.068405 249.927200,185.109741 
	C249.919617,146.286835 249.919647,107.463913 249.926971,68.640999 
	C249.928116,62.636372 250.501907,62.033894 256.463165,62.028713 
	C279.123749,62.009014 301.784332,62.010368 324.444916,62.028439 
	C330.357239,62.033154 331.025787,62.698814 331.011261,68.659325 
	C330.973846,83.976448 332.681915,82.565178 317.101410,82.568665 
	C303.438416,82.571724 289.775421,82.568130 276.112427,82.567497 
	C274.322723,82.567413 272.533051,82.567482 270.499634,82.567482 
	C270.499634,94.697945 270.499634,106.278610 270.499634,118.446442 
	C277.166382,118.446442 283.619141,118.446167 290.071869,118.446510 
	C297.736481,118.446922 305.401978,118.518814 313.065308,118.420410 
	C317.278442,118.366325 319.091339,120.211174 319.062805,124.446503 
	C318.952118,140.876312 320.436279,139.151932 304.824982,139.174591 
	C293.528229,139.190979 282.231415,139.177795 270.260345,139.177795 
	C270.260345,149.411209 270.181854,159.171051 270.410309,168.923706 
	C270.428467,169.699127 272.571655,170.424759 274.205475,171.174072 
z"/>
<path fill="#060606" opacity="1.000000" stroke="none" 
	d="
M439.313049,184.333679 
	C422.226624,197.925613 380.056793,199.990417 360.219330,177.556961 
	C355.752075,172.505112 355.670105,170.961929 361.063507,166.824081 
	C361.988586,166.114365 362.920471,165.413345 363.855438,164.716675 
	C370.818665,159.528214 370.639191,159.709778 376.713867,165.751984 
	C379.362061,168.386047 382.676178,170.677948 386.108002,172.137085 
	C397.611694,177.028076 409.454468,177.054749 421.217041,173.025925 
	C429.089264,170.329605 433.315002,164.756012 433.399017,157.681641 
	C433.493195,149.754074 428.663055,145.232239 421.890747,143.172729 
	C411.729340,140.082581 401.256897,138.030380 391.021118,135.163879 
	C385.131378,133.514450 379.262848,131.535568 373.703918,129.004135 
	C353.613953,119.855515 352.988892,98.417145 358.775787,85.306061 
	C363.157471,75.378754 370.754486,68.717415 380.742249,64.622093 
	C401.988647,55.910351 429.575684,60.796101 445.045807,76.128723 
	C446.693695,77.761986 448.133911,79.613976 449.592041,81.427582 
	C452.201782,84.673546 451.834259,87.500854 448.274384,89.809258 
	C447.856842,90.080009 447.488098,90.425545 447.094086,90.733086 
	C437.887756,97.919647 437.887695,97.919571 429.892365,89.789322 
	C418.925964,78.637871 399.809448,75.555016 385.935028,82.730072 
	C379.534760,86.039902 375.503113,91.138443 375.437683,98.499336 
	C375.370514,106.050552 380.091400,110.733620 386.698029,112.746155 
	C397.013672,115.888557 407.685638,117.849419 418.040558,120.878654 
	C424.849396,122.870522 431.737000,125.175072 437.944885,128.531525 
	C457.434143,139.068893 456.715454,167.114212 444.329987,179.673019 
	C442.811188,181.213058 441.180298,182.642563 439.313049,184.333679 
z"/>
<path fill="#08B0EE" opacity="1.000000" stroke="none" 
	d="
M148.977020,157.457428 
	C148.921127,171.780167 148.873474,186.102966 148.805771,200.425644 
	C148.773376,207.277908 148.136780,207.912552 141.461929,207.922287 
	C137.630417,207.927872 133.786835,207.731186 129.970413,207.971222 
	C125.094719,208.277908 124.043701,205.613861 124.057777,201.484451 
	C124.106613,187.159409 124.028900,172.833923 123.977486,157.692444 
	C125.768768,152.253616 127.581909,147.630920 129.831757,143.030090 
	C134.550415,143.087067 138.832367,143.122177 143.272873,143.517212 
	C145.279968,148.403900 147.128479,152.930664 148.977020,157.457428 
z"/>
<path fill="#F47D24" opacity="1.000000" stroke="none" 
	d="
M166.758209,114.409866 
	C181.240509,114.421188 195.722870,114.414711 210.205109,114.451866 
	C216.782623,114.468735 217.587738,115.327972 217.600998,122.011719 
	C217.608261,125.674019 217.462646,129.342850 217.634888,132.997009 
	C217.848114,137.520996 215.832916,139.217316 211.372574,139.183853 
	C196.891907,139.075180 182.409500,139.197189 167.092514,139.186005 
	C161.717468,137.398361 157.177689,135.655106 152.672592,133.455811 
	C152.737350,128.719467 152.767395,124.439156 153.168640,120.068962 
	C157.945969,118.122681 162.352081,116.266273 166.758209,114.409866 
z"/>
<path fill="#EC058E" opacity="1.000000" stroke="none" 
	d="
M105.650208,139.092102 
	C91.014015,139.106598 76.376900,139.033096 61.742180,139.187256 
	C57.131596,139.235809 54.887547,137.644348 55.228367,132.781799 
	C55.471977,129.306137 55.272453,125.799629 55.276276,122.306885 
	C55.284016,115.234154 55.964619,114.485626 62.866875,114.494934 
	C75.838745,114.512428 88.810501,114.597466 101.782356,114.637962 
	C102.942444,114.641586 104.102898,114.525085 105.960999,114.435959 
	C111.165382,116.263916 115.671959,118.120285 120.170815,120.441071 
	C120.133972,125.161758 120.104843,129.418030 119.697067,133.763214 
	C114.762360,135.598785 110.206284,137.345444 105.650208,139.092102 
z"/>
<path fill="#7EC249" opacity="1.000000" stroke="none" 
	d="
M123.904663,96.173813 
	C123.961693,81.850632 124.015961,67.527435 124.076965,53.204269 
	C124.105957,46.396561 124.629784,45.887836 131.558990,45.878296 
	C134.557419,45.874165 137.555862,45.877193 140.554291,45.878334 
	C148.513077,45.881363 148.829437,46.170879 148.824051,53.915211 
	C148.814423,67.741013 148.779816,81.566788 148.660675,96.179214 
	C146.682541,101.508667 144.799377,106.051483 142.466003,110.652878 
	C137.895218,110.691460 133.774658,110.671471 129.524689,110.296158 
	C127.565056,105.351830 125.734856,100.762817 123.904663,96.173813 
z"/>
<path fill="#F47E25" opacity="1.000000" stroke="none" 
	d="
M105.496857,139.426910 
	C110.206284,137.345444 114.762360,135.598785 120.000610,133.939621 
	C123.586876,137.020828 126.490967,140.014526 129.395050,143.008240 
	C127.581909,147.630920 125.768768,152.253616 123.856842,157.207443 
	C113.789375,167.074005 103.787735,176.575287 93.864853,186.158127 
	C88.235306,191.594772 87.271049,191.664215 81.640892,186.277115 
	C79.837471,184.551559 78.057953,182.798813 76.206100,181.126495 
	C70.606201,176.069473 70.594452,175.153122 76.075569,169.681396 
	C84.909904,160.862213 93.738655,152.037354 102.538719,143.184036 
	C103.573746,142.142746 104.413330,140.907196 105.496857,139.426910 
z"/>
<path fill="#EC068E" opacity="1.000000" stroke="none" 
	d="
M142.916229,110.594299 
	C144.799377,106.051483 146.682541,101.508667 148.685349,96.671097 
	C158.908386,86.771881 169.047470,77.204575 179.100983,67.548195 
	C184.605286,62.261326 185.769577,62.207821 191.230667,67.784393 
	C193.206085,69.801605 194.988541,72.034225 197.117188,73.869102 
	C200.836060,77.074791 200.216827,79.805717 197.026291,83.034393 
	C186.988052,93.192642 177.113815,103.512932 166.967133,114.090172 
	C162.352081,116.266273 157.945969,118.122681 152.893997,119.885101 
	C149.137512,116.725502 146.026855,113.659897 142.916229,110.594299 
z"/>
<path fill="#06AFEF" opacity="1.000000" stroke="none" 
	d="
M123.566849,95.973206 
	C125.734856,100.762817 127.565056,105.351830 129.270828,110.601830 
	C126.157112,114.167435 123.167824,117.072044 120.178528,119.976654 
	C115.671959,118.120285 111.165382,116.263916 106.321640,114.308151 
	C96.194656,104.050156 86.429070,93.868057 76.604553,83.743141 
	C71.876572,78.870590 71.819427,77.897964 76.435318,73.225517 
	C78.769669,70.862572 81.063881,68.459824 83.366440,66.065659 
	C86.375183,62.937206 89.187172,62.995876 92.334373,66.105492 
	C101.904419,75.561234 111.609207,84.880638 121.274994,94.239235 
	C121.866600,94.812050 122.574989,95.264267 123.566849,95.973206 
z"/>
<path fill="#7DC247" opacity="1.000000" stroke="none" 
	d="
M152.637894,133.911850 
	C157.177689,135.655106 161.717468,137.398361 166.627167,139.241547 
	C176.510391,149.320419 185.979599,159.341949 195.553680,169.262238 
	C201.250305,175.164856 201.317490,175.264923 195.635101,181.198502 
	C193.679199,183.240875 191.866364,185.427658 189.830505,187.384445 
	C185.916794,191.146225 184.112579,191.116455 180.150848,187.268753 
	C170.717209,178.106583 161.329178,168.897461 151.908783,159.721619 
	C151.199020,159.030273 150.378967,158.452164 149.293579,157.639435 
	C147.128479,152.930664 145.279968,148.403900 143.551880,143.234070 
	C146.660828,139.697952 149.649368,136.804901 152.637894,133.911850 
z"/>
<path fill="#151515" opacity="1.000000" stroke="none" 
	d="
M373.196655,282.105591 
	C372.918121,280.764496 372.757202,279.793488 372.598328,278.834808 
	C379.550751,277.397797 379.588654,277.439056 380.933868,283.910461 
	C381.754639,287.858795 382.651703,291.791290 384.723053,295.784943 
	C386.117828,290.124084 387.512604,284.463226 388.978668,278.513000 
	C390.983887,278.513000 392.897858,278.513000 395.295807,278.513000 
	C396.673798,284.187683 398.097961,290.052429 399.522095,295.917175 
	C399.838867,295.939758 400.155640,295.962341 400.472412,295.984894 
	C401.850769,290.252563 403.229156,284.520203 404.677185,278.498169 
	C406.779144,278.498169 408.858582,278.498169 411.775482,278.498169 
	C409.241699,287.385040 406.771973,296.047272 404.252747,304.883118 
	C401.590668,304.883118 399.174622,304.883118 396.389191,304.883118 
	C395.105103,299.610596 393.820007,294.334045 392.176392,287.585419 
	C390.510284,294.181305 389.164368,299.509460 387.791351,304.945007 
	C385.072021,304.945007 382.616760,304.945007 379.805389,304.945007 
	C377.638641,297.444641 375.476471,289.960144 373.196655,282.105591 
z"/>
<path fill="#141414" opacity="1.000000" stroke="none" 
	d="
M416.188843,295.948181 
	C416.188843,289.868164 416.188843,284.281097 416.188843,278.261475 
	C421.366516,278.261475 426.045441,277.734406 430.523102,278.456116 
	C433.276062,278.899872 436.783691,280.677521 437.995514,282.915741 
	C439.129272,285.009735 437.682617,288.500824 437.417511,290.952484 
	C437.878540,294.519409 439.750214,298.787720 438.359833,301.060577 
	C436.914307,303.423706 432.410950,304.448669 429.072327,304.984192 
	C425.061188,305.627625 420.868042,305.136322 416.188843,305.136322 
	C416.188843,301.972717 416.188843,299.206940 416.188843,295.948181 
M423.853485,299.878357 
	C425.503265,299.966431 427.265564,300.450012 428.768646,300.022369 
	C430.062958,299.654175 431.061646,298.247009 432.191040,297.299225 
	C431.134796,296.259766 430.237061,294.676575 428.984283,294.311401 
	C427.215363,293.795746 425.183868,294.180817 422.907288,294.180817 
	C423.043884,296.330383 423.136749,297.791626 423.853485,299.878357 
M423.091888,284.615814 
	C423.091888,286.032654 423.091888,287.449493 423.091888,289.180328 
	C425.059692,289.180328 426.510529,289.537231 427.645294,289.090820 
	C429.092560,288.521393 430.284393,287.302734 431.586334,286.363953 
	C430.277435,285.475159 429.071350,284.282440 427.627045,283.793762 
	C426.471863,283.402863 425.026947,283.868073 423.091888,284.615814 
z"/>
<path fill="#141414" opacity="1.000000" stroke="none" 
	d="
M370.189606,286.136841 
	C370.188446,289.604248 370.309326,292.609131 370.160889,295.600616 
	C369.858429,301.695129 366.165771,305.097595 359.775299,305.361298 
	C351.566589,305.700012 347.000580,303.011871 346.451813,296.640015 
	C345.942413,290.725677 346.343140,284.732941 346.343140,278.480469 
	C348.763824,278.480469 350.831940,278.480469 353.401733,278.480469 
	C353.401733,283.629669 353.411011,288.595581 353.398590,293.561401 
	C353.389771,297.078400 354.191132,300.111206 358.511230,299.932434 
	C362.486298,299.767944 363.133636,296.910278 363.066650,293.560760 
	C362.967529,288.605194 363.041016,283.646179 363.041016,278.472565 
	C365.614227,278.472565 367.676758,278.472565 370.189758,278.472565 
	C370.189758,281.063232 370.189758,283.365723 370.189606,286.136841 
z"/>
<path fill="#141414" opacity="1.000000" stroke="none" 
	d="
M462.178284,304.374756 
	C460.051331,304.928070 458.097382,305.068207 455.747009,305.236786 
	C455.747009,296.210632 455.747009,287.530853 455.747009,278.361694 
	C460.371277,278.361694 464.976776,278.022461 469.510620,278.447510 
	C475.188538,278.979797 478.096039,282.492401 477.919220,287.646759 
	C477.744080,292.752441 474.505676,295.810242 468.790314,296.148071 
	C466.833557,296.263733 464.864197,296.166473 462.351318,296.166473 
	C462.351318,299.059021 462.351318,301.510284 462.178284,304.374756 
M462.331238,289.043213 
	C464.238220,292.367981 467.082489,291.168945 469.368500,290.003662 
	C470.229797,289.564667 470.718719,286.113342 470.345032,285.907288 
	C468.084534,284.660706 465.525116,283.956116 462.310486,282.798370 
	C462.310486,285.616058 462.310486,286.897003 462.331238,289.043213 
z"/>
<path fill="#141414" opacity="1.000000" stroke="none" 
	d="
M560.436035,290.834412 
	C559.781616,293.394897 559.362061,295.646301 559.200378,297.916077 
	C559.048157,300.053802 559.167725,302.210876 559.167725,304.746857 
	C556.782959,304.746857 554.613953,304.746857 552.229614,304.746857 
	C552.229614,298.195679 552.229614,291.773834 552.229614,284.393677 
	C554.502197,284.993805 556.514771,285.611908 558.568787,286.022156 
	C559.319702,286.172119 560.241150,285.995361 560.962646,285.684357 
	C568.068787,282.621033 572.182983,285.281830 572.220581,293.032806 
	C572.239075,296.842621 572.223816,300.652588 572.223816,304.797852 
	C569.978699,304.797852 567.928711,304.797852 565.370605,304.797852 
	C565.370605,301.142395 565.417908,297.525330 565.356018,293.910156 
	C565.303955,290.873108 564.323303,288.927155 560.436035,290.834412 
z"/>
<path fill="#171717" opacity="1.000000" stroke="none" 
	d="
M545.825012,299.248810 
	C545.831177,300.537628 546.390686,302.349304 545.750183,303.027130 
	C542.516724,306.449188 534.241577,306.205505 530.600525,302.853668 
	C526.690247,299.253937 526.310059,291.891968 529.825562,287.847473 
	C533.106567,284.072906 540.803650,282.800262 544.279480,286.336395 
	C546.441833,288.536285 546.989746,292.323029 547.724854,295.886536 
	C543.006226,296.375519 538.824890,296.375519 534.182739,296.375519 
	C535.613281,300.983551 537.849487,301.238892 540.806152,300.250427 
	C542.411377,299.713776 544.147766,299.569855 545.825012,299.248810 
z"/>
<path fill="#313131" opacity="1.000000" stroke="none" 
	d="
M421.365845,244.484650 
	C420.709015,243.482758 420.276520,242.801041 419.843994,242.119339 
	C419.488800,242.134064 419.133575,242.148788 418.778351,242.163513 
	C418.778351,246.984207 418.907928,251.810684 418.692749,256.621765 
	C418.634552,257.923492 417.532715,259.178558 416.909882,260.455048 
	C416.344574,259.133575 415.321838,257.822876 415.290558,256.488861 
	C415.126648,249.500595 415.213959,242.506424 415.213959,235.433487 
	C417.993652,233.824646 419.700073,234.629929 421.274811,237.292709 
	C424.436646,242.639084 427.890320,247.812851 432.198303,252.827621 
	C432.198303,247.757858 432.108307,242.685135 432.275818,237.620911 
	C432.308502,236.632294 433.340942,235.676773 433.912262,234.705994 
	C434.524750,235.632599 435.650208,236.549164 435.668549,237.487381 
	C435.814270,244.947891 435.749725,252.412521 435.749725,261.712128 
	C433.049042,259.987000 430.945129,259.302887 429.906464,257.854736 
	C426.904633,253.669556 424.331604,249.176819 421.365845,244.484650 
z"/>
<path fill="#151515" opacity="1.000000" stroke="none" 
	d="
M520.726868,293.346588 
	C523.658997,294.837585 525.252136,297.545074 523.803284,300.284515 
	C522.674744,302.418396 520.013855,304.567169 517.684021,305.062012 
	C513.338562,305.984924 508.719086,305.781677 504.976837,301.673431 
	C507.807526,299.134644 508.641479,296.653809 506.132751,293.025970 
	C505.289978,291.807312 506.968353,287.347137 508.718048,286.135559 
	C512.765991,283.332397 517.544678,283.936737 521.992737,286.056458 
	C524.604797,287.301239 523.697205,288.773010 521.691040,290.508484 
	C518.350952,290.203552 515.554810,287.291626 511.384735,291.478271 
	C515.241455,292.249573 517.984192,292.798065 520.726868,293.346588 
z"/>
<path fill="#252525" opacity="1.000000" stroke="none" 
	d="
M492.276154,259.116699 
	C490.706726,259.242310 488.286499,259.446960 488.011139,258.773987 
	C485.704102,253.135910 483.790955,247.336624 482.468414,241.182770 
	C488.737183,242.823563 486.569244,250.033035 490.598328,253.842545 
	C491.891449,250.163284 492.971375,246.765060 494.309357,243.471664 
	C494.741089,242.408890 495.851379,241.621780 496.651276,240.708557 
	C497.617584,241.634506 498.979706,242.387177 499.475220,243.519196 
	C500.900116,246.774475 501.974701,250.183136 503.262573,253.740509 
	C507.285461,249.923691 505.022736,242.840073 510.351196,240.520599 
	C510.919342,240.801880 511.487488,241.083160 512.055664,241.364441 
	C509.981934,247.382217 508.313843,253.588455 505.646240,259.330292 
	C504.485870,261.827911 502.050690,260.830231 501.075684,258.057648 
	C499.773132,254.353607 498.377869,250.682190 496.728363,246.197159 
	C495.078064,251.019882 493.748810,254.904404 492.276154,259.116699 
z"/>
<path fill="#1F1F1F" opacity="1.000000" stroke="none" 
	d="
M240.699707,240.557190 
	C242.430267,235.058472 246.620682,233.789474 251.092834,234.584061 
	C254.099960,235.118362 256.833374,237.286697 259.578613,238.910980 
	C259.708923,238.988113 258.764221,240.882141 257.949646,240.289413 
	C254.388397,239.569962 250.847839,238.623566 247.250900,238.295563 
	C246.384796,238.216599 244.651840,240.129318 244.557770,241.231934 
	C244.465500,242.313370 245.706985,244.107849 246.796097,244.570816 
	C249.359100,245.660294 252.183517,246.130585 254.896164,246.873352 
	C258.294464,247.803848 260.409637,249.673676 260.287323,253.564514 
	C260.166199,257.415741 257.809082,259.308533 254.584503,260.193329 
	C249.869263,261.487061 245.238586,261.039490 241.475128,257.633026 
	C240.621201,256.860077 240.787125,254.960434 240.631393,254.251755 
	C245.396255,255.348816 249.141571,256.531647 252.964401,256.891998 
	C254.081772,256.997345 255.419876,254.761108 256.656830,253.598145 
	C255.568344,252.481247 254.672287,250.921158 253.348434,250.346390 
	C251.097260,249.369034 248.580750,248.995911 246.168579,248.397781 
	C242.254944,247.427353 240.058960,245.202194 240.699707,240.557190 
z"/>
<path fill="#151515" opacity="1.000000" stroke="none" 
	d="
M142.729614,248.938873 
	C142.791229,251.933350 142.983490,254.934540 142.830048,257.917969 
	C142.787384,258.747406 141.720657,259.524170 141.123764,260.325104 
	C140.528229,259.527618 139.442032,258.744965 139.417389,257.930206 
	C139.266327,252.935837 139.355606,247.934189 139.759216,242.541718 
	C140.734360,241.907654 141.315140,241.666809 141.895920,241.425949 
	C142.428909,241.671082 142.961899,241.916214 144.084717,242.123444 
	C145.481262,241.629684 146.287964,241.173843 147.094666,240.718018 
	C147.803986,240.625061 148.513321,240.532104 149.711853,240.859268 
	C151.004288,241.383545 151.807526,241.487717 152.610764,241.591888 
	C154.310257,241.548019 156.245605,242.020523 157.668335,241.370712 
	C163.764511,238.586319 169.274872,241.836548 169.430450,248.604507 
	C169.503113,251.765060 169.563324,254.936386 169.360733,258.085541 
	C169.309021,258.889435 168.234589,259.627502 167.630035,260.395813 
	C167.094025,259.584961 166.154373,258.802094 166.095856,257.958130 
	C165.900620,255.142288 165.986526,252.304001 166.030273,249.475327 
	C166.075256,246.566406 165.552170,243.874496 162.017166,243.780548 
	C158.491852,243.686874 156.448898,245.870316 156.140869,249.305878 
	C155.889130,252.113815 156.173599,254.967545 155.977524,257.784058 
	C155.915085,258.680756 155.073441,259.523224 154.588348,260.390503 
	C153.942261,259.503601 152.839905,258.665497 152.738785,257.720276 
	C152.474686,255.251953 152.940353,252.691223 152.559631,250.254089 
	C152.230637,248.148117 151.517593,244.781631 150.294449,244.445389 
	C148.460327,243.941147 146.031357,245.600586 143.336456,246.671387 
	C142.788254,247.648193 142.758926,248.293533 142.729614,248.938873 
z"/>
<path fill="#1B1B1B" opacity="1.000000" stroke="none" 
	d="
M66.905090,257.005096 
	C69.538704,257.539612 71.700165,258.074127 73.861633,258.608643 
	C71.746628,259.223267 69.659096,260.213654 67.510635,260.370728 
	C63.582207,260.657990 59.617756,260.452515 55.452446,260.452515 
	C55.452446,251.692490 55.452446,243.457001 55.452446,234.960205 
	C61.316322,234.960205 67.068138,234.960205 72.829552,234.960205 
	C72.583405,237.948547 72.583405,237.948578 67.201439,237.948715 
	C64.580757,237.948776 61.960072,237.948715 59.099403,237.948715 
	C59.099403,240.614578 59.099403,242.880875 59.099403,245.847336 
	C60.783932,245.847336 62.530075,245.847321 64.276222,245.847321 
	C66.075745,245.847321 67.875275,245.847336 69.717079,245.847336 
	C69.379021,248.581482 69.379021,248.581482 59.219826,249.372040 
	C59.219826,251.709137 59.219826,254.093552 59.219826,257.005096 
	C61.544025,257.005096 63.988483,257.005096 66.905090,257.005096 
z"/>
<path fill="#191919" opacity="1.000000" stroke="none" 
	d="
M499.600006,293.844299 
	C499.715424,297.201111 498.678253,300.683685 503.266785,300.990356 
	C503.900604,304.735474 501.915283,305.384369 499.009399,305.408691 
	C495.568939,305.437531 492.906616,304.439209 492.830750,300.592133 
	C492.674164,292.652008 492.783600,284.706604 492.783600,276.483215 
	C495.145782,276.483215 497.064667,276.483215 499.599762,276.483215 
	C499.599762,282.145996 499.599762,287.755768 499.600006,293.844299 
z"/>
<path fill="#2C2C2C" opacity="1.000000" stroke="none" 
	d="
M567.454468,256.421753 
	C566.177673,254.664871 565.124268,253.220642 563.207947,250.593353 
	C561.877869,253.663498 561.056885,255.779419 560.044495,257.799347 
	C559.557983,258.770111 558.709839,259.559631 558.025452,260.431244 
	C557.459778,259.599396 556.416870,258.775452 556.402893,257.934448 
	C556.276245,250.274536 556.260010,242.610245 556.417053,234.951447 
	C556.436462,234.003311 557.656311,233.079773 558.319885,232.144836 
	C558.907471,233.140381 559.959473,234.116379 560.002319,235.134827 
	C560.189148,239.575577 560.082642,244.028671 560.082642,249.393356 
	C564.420227,245.892456 568.047058,242.965164 571.808228,239.929443 
	C572.434692,240.994904 572.547729,241.165421 572.537598,241.173035 
	C564.543274,247.218018 568.922424,252.725937 573.259155,258.246796 
	C573.555237,258.623718 573.739868,259.088135 573.980713,259.519562 
	C570.502502,260.680450 570.502502,260.680450 567.454468,256.421753 
z"/>
<path fill="#2A2A2A" opacity="1.000000" stroke="none" 
	d="
M331.179382,252.575821 
	C331.221008,243.662720 334.800201,239.405273 341.481018,240.455933 
	C343.577576,240.785660 346.073242,242.083282 347.261139,243.743088 
	C348.566742,245.567368 348.574860,248.320221 349.148315,250.668503 
	C347.321747,251.078537 345.511353,251.712479 343.664795,251.846207 
	C340.886475,252.047409 338.082794,251.898605 334.941681,251.898605 
	C337.161926,261.964081 344.164368,254.438248 348.877197,255.826385 
	C346.823578,260.433075 343.340515,261.010315 339.612122,260.758728 
	C334.817749,260.435211 332.081909,257.662476 331.179382,252.575821 
M340.520660,243.649292 
	C337.383240,243.848343 335.193665,245.040192 335.120758,248.508759 
	C338.636261,248.508759 341.966095,248.508759 345.295959,248.508759 
	C345.492920,248.106689 345.689850,247.704636 345.886810,247.302567 
	C344.382782,246.108795 342.878723,244.915024 340.520660,243.649292 
z"/>
<path fill="#1E1E1E" opacity="1.000000" stroke="none" 
	d="
M96.571701,259.599640 
	C93.239243,255.077438 93.996910,252.022980 98.699570,250.081558 
	C100.056023,249.521591 101.584747,249.384842 103.027718,249.026764 
	C104.274490,248.717361 105.511658,248.369217 107.268456,247.900803 
	C103.881310,240.629242 99.159035,245.648224 94.022156,246.302139 
	C96.336555,241.598175 99.738152,240.817856 103.390755,241.034882 
	C106.674019,241.229996 110.039307,241.874268 110.342659,246.253662 
	C110.434410,247.578247 110.233894,248.937637 110.443336,250.236588 
	C110.942245,253.330704 111.605911,256.398254 112.269707,259.820312 
	C107.790237,259.820312 102.336868,259.820312 96.571701,259.599640 
M98.463196,256.230591 
	C103.880920,258.737793 106.832863,257.156891 106.324654,250.438110 
	C103.243874,252.326111 100.721008,253.872208 98.463196,256.230591 
z"/>
<path fill="#282828" opacity="1.000000" stroke="none" 
	d="
M459.280762,256.119110 
	C456.550476,260.819427 451.112244,262.160675 446.607635,259.610626 
	C442.330353,257.189270 440.621063,251.128143 442.735535,245.880234 
	C444.490387,241.524963 449.031769,239.362564 453.842468,240.591644 
	C458.567535,241.798859 460.618591,245.611115 459.611481,251.847961 
	C455.242371,251.847961 450.792542,251.847961 446.278900,251.847961 
	C447.284882,257.179932 450.835785,258.823486 455.293518,256.556427 
	C456.369751,256.009094 457.747009,256.053619 459.280762,256.119110 
M447.080048,248.912308 
	C450.173676,248.912308 453.267303,248.912308 456.660706,248.912308 
	C456.085754,245.218399 454.273163,243.435287 450.980560,243.682480 
	C448.103455,243.898453 446.007721,245.238678 447.080048,248.912308 
z"/>
<path fill="#282828" opacity="1.000000" stroke="none" 
	d="
M518.025879,243.053680 
	C523.132629,239.562897 528.126831,239.505142 531.555237,242.623947 
	C534.768921,245.547440 535.547852,252.336746 533.153503,256.554199 
	C531.107056,260.158875 526.366577,261.747498 521.745056,260.377350 
	C515.252197,258.452423 513.396851,250.501617 518.025879,243.053680 
M527.037842,243.911484 
	C523.208252,242.970718 520.381958,244.229797 519.351318,248.082169 
	C518.458313,251.420242 518.559753,255.147629 522.153809,256.690582 
	C524.000427,257.483337 527.410706,257.152191 528.835693,255.887833 
	C531.864136,253.200775 531.585999,249.396835 529.578918,245.917145 
	C529.187256,245.238037 528.399963,244.787064 527.037842,243.911484 
z"/>
<path fill="#1E1E1E" opacity="1.000000" stroke="none" 
	d="
M207.838699,260.742981 
	C204.461594,259.826782 201.483627,258.886414 198.505661,257.946045 
	C198.620865,257.311157 198.736053,256.676300 198.851242,256.041443 
	C202.792419,253.344818 207.619324,261.249084 212.020981,254.604691 
	C209.396423,253.623932 207.040634,252.658356 204.629364,251.860382 
	C199.740250,250.242371 197.887161,245.957291 200.809296,242.861496 
	C202.810211,240.741669 209.801544,240.176895 212.185745,242.073654 
	C213.158783,242.847733 213.849579,243.976578 214.914795,245.234589 
	C211.006760,248.017960 206.497086,240.063309 202.792084,246.942612 
	C204.795807,247.692444 206.602600,248.534668 208.499100,249.040588 
	C211.584549,249.863617 215.136917,250.307983 215.170242,254.439148 
	C215.205322,258.789246 212.109344,260.338531 207.838699,260.742981 
z"/>
<path fill="#212121" opacity="1.000000" stroke="none" 
	d="
M298.078491,260.043152 
	C295.893494,260.087433 294.032776,260.451813 292.155640,260.682068 
	C286.698730,261.351379 283.566620,258.718994 283.363922,253.219376 
	C283.253784,250.230820 283.174744,247.221313 283.419800,244.249130 
	C283.519012,243.045532 284.519073,241.916214 285.109253,240.753098 
	C285.721649,241.860977 286.746124,242.927261 286.863007,244.085175 
	C287.128754,246.718521 286.958771,249.396896 286.947144,252.056885 
	C286.934204,255.015991 287.605621,257.487549 291.250977,257.411102 
	C294.734406,257.338043 296.922180,255.707565 296.976562,251.968430 
	C297.017670,249.142685 296.829407,246.300583 297.090942,243.498215 
	C297.180573,242.537796 298.324615,241.675751 298.986938,240.768753 
	C299.506897,241.664032 300.450043,242.547058 300.476410,243.456650 
	C300.620941,248.439926 300.618683,253.432495 300.442627,258.413940 
	C300.419586,259.066589 299.109375,259.673767 298.078491,260.043152 
z"/>
<path fill="#212121" opacity="1.000000" stroke="none" 
	d="
M117.646179,257.351105 
	C118.498581,256.526520 119.562004,255.599701 120.607132,255.619904 
	C121.606445,255.639191 122.648163,257.201904 123.562935,257.101288 
	C125.622139,256.874847 127.614296,256.038757 129.633743,255.450806 
	C128.144775,254.432816 126.733337,253.266479 125.145988,252.436691 
	C123.403320,251.525711 121.236565,251.269989 119.718399,250.117706 
	C116.458412,247.643326 117.347084,242.802414 121.389442,241.952469 
	C124.365440,241.326736 127.641106,241.872681 130.733429,242.277206 
	C131.320709,242.354034 131.674637,244.214722 132.136230,245.252350 
	C131.081299,245.226929 130.007736,245.308441 128.979553,245.129379 
	C128.490967,245.044296 128.007721,244.091217 127.661095,244.167023 
	C125.718437,244.591888 123.818199,245.210709 121.903488,245.763336 
	C123.304741,246.828781 124.620857,248.044189 126.138008,248.905502 
	C127.105110,249.454529 128.665939,249.137848 129.440018,249.809357 
	C131.056824,251.211975 133.587982,253.143570 133.434067,254.616562 
	C133.226624,256.601898 131.207901,259.263611 129.316772,260.028351 
	C125.305748,261.650360 121.106430,261.184113 117.646179,257.351105 
z"/>
<path fill="#2C2C2C" opacity="1.000000" stroke="none" 
	d="
M474.704529,240.651886 
	C476.110291,241.208862 477.085876,241.764862 478.061462,242.320862 
	C477.117950,242.900543 476.238434,243.692886 475.213318,244.001251 
	C474.147064,244.321976 472.940216,244.175125 470.969299,244.274307 
	C470.969299,247.094452 470.987427,249.832764 470.964508,252.570740 
	C470.938232,255.705261 471.716125,257.849884 475.600128,256.944916 
	C476.272095,256.788361 477.150940,257.519928 477.934204,257.841248 
	C477.460968,258.609314 477.170990,259.684540 476.484070,260.094391 
	C472.716827,262.342041 468.132355,260.191956 467.423859,255.857681 
	C467.158905,254.236908 467.484833,252.514359 467.181244,250.906219 
	C466.634094,248.007980 465.815552,245.161011 465.110413,242.292618 
	C464.639069,242.357727 464.167725,242.422836 463.696381,242.487930 
	C465.669647,240.116425 467.642883,237.744904 468.984650,236.132324 
	C471.190094,238.016251 472.732239,239.333588 474.704529,240.651886 
z"/>
<path fill="#2C2C2C" opacity="1.000000" stroke="none" 
	d="
M266.649231,240.569702 
	C268.055634,238.760361 269.081635,237.017700 270.107635,235.275040 
	C270.564148,235.467056 271.020660,235.659073 271.477142,235.851089 
	C271.752167,237.231522 272.027191,238.611954 272.360992,240.287399 
	C273.456696,240.408142 274.608734,240.380417 275.659332,240.693283 
	C276.764496,241.022385 277.772675,241.677292 278.823212,242.189819 
	C277.733215,242.814529 276.698456,243.591064 275.535126,244.014221 
	C274.657288,244.333527 273.614929,244.200684 271.930084,244.319611 
	C271.930084,247.362473 271.966980,250.281738 271.919647,253.199631 
	C271.872925,256.080780 272.865417,257.575958 276.086304,257.023773 
	C276.900787,256.884155 277.888733,257.756287 278.796967,258.163513 
	C278.041077,258.915588 277.417694,260.000061 276.506744,260.363312 
	C272.112946,262.115295 268.483582,259.761261 268.213959,255.054901 
	C268.090881,252.906418 268.247467,250.743225 268.174011,248.590210 
	C268.106262,246.605011 268.982971,244.000351 265.508362,243.937332 
	C265.761841,242.837006 266.015320,241.736679 266.649231,240.569702 
z"/>
<path fill="#212121" opacity="1.000000" stroke="none" 
	d="
M377.023865,243.552795 
	C378.659760,240.634201 380.599945,237.962387 383.229797,234.340805 
	C383.693512,236.509277 383.871552,237.228241 383.996368,237.956329 
	C384.130798,238.740402 384.215363,239.533035 384.235413,239.681900 
	C386.824036,240.675186 388.922882,241.480545 391.021698,242.285904 
	C388.989777,243.140793 386.957855,243.995682 384.543640,245.011414 
	C382.296539,254.314011 383.595428,257.224213 390.385284,257.037292 
	C390.643860,257.436615 390.902435,257.835938 391.161011,258.235229 
	C389.590881,259.078247 387.747040,260.896027 386.511047,260.548981 
	C384.343475,259.940308 381.545349,258.387177 380.838470,256.533081 
	C379.840607,253.915680 380.374298,250.659012 380.499939,247.686066 
	C380.600952,245.296021 379.928284,243.840088 377.023865,243.552795 
z"/>
<path fill="#151515" opacity="1.000000" stroke="none" 
	d="
M488.707275,295.019867 
	C488.707001,298.471313 488.707001,301.442780 488.707001,304.772034 
	C486.357239,304.772034 484.310944,304.772034 481.899445,304.772034 
	C481.899445,298.443604 481.899445,292.049591 481.899445,285.197876 
	C483.838104,285.197876 486.014648,285.197876 488.707550,285.197876 
	C488.707550,288.321167 488.707550,291.430542 488.707275,295.019867 
z"/>
<path fill="#0C0C0C" opacity="1.000000" stroke="none" 
	d="
M182.933838,258.002075 
	C188.947067,257.064575 190.402390,253.408020 189.795975,248.308640 
	C189.640076,246.997757 189.532867,245.593170 189.842224,244.339981 
	C190.141983,243.125702 191.006470,242.050842 191.622925,240.914749 
	C192.123260,241.967804 193.025940,243.009537 193.055954,244.075821 
	C193.204971,249.368484 193.123917,254.667633 193.123917,259.324768 
	C189.950195,259.929474 187.259857,260.365570 184.606796,260.966400 
	C181.055405,261.770630 176.330414,258.936035 176.060028,255.383911 
	C175.770737,251.583450 175.863953,247.737518 176.077637,243.927551 
	C176.126007,243.065125 177.360474,242.269211 179.020767,242.030884 
	C179.020767,245.632401 178.636047,249.293091 179.177032,252.811432 
	C179.463501,254.674500 181.359283,256.290100 182.933838,258.002075 
z"/>
<path fill="#141414" opacity="1.000000" stroke="none" 
	d="
M368.687012,241.645905 
	C369.543671,242.358459 371.129364,243.059402 371.140930,243.785431 
	C371.228516,249.283554 371.007477,254.786591 370.424286,259.741486 
	C369.572418,255.112549 369.178955,251.030228 368.785492,246.947891 
	C366.796326,245.930099 364.279694,243.641205 362.943024,244.195847 
	C360.993805,245.004715 359.277832,247.669586 358.596619,249.891006 
	C357.855743,252.306931 358.578522,255.137497 358.313904,257.751923 
	C358.219879,258.680573 357.100494,259.505402 356.449188,260.377625 
	C355.968323,259.515564 355.094299,258.663727 355.071594,257.789795 
	C354.942993,252.842422 355.018280,247.889771 355.468597,242.525131 
	C358.292542,241.664017 360.672028,241.216690 363.051544,240.769363 
	C363.786438,240.661575 364.521301,240.553787 365.755981,240.889801 
	C367.066193,241.437714 367.876617,241.541809 368.687012,241.645905 
z"/>
<path fill="#313131" opacity="1.000000" stroke="none" 
	d="
M90.769257,242.057083 
	C90.637093,242.741592 90.513939,243.286697 90.347778,243.300140 
	C82.515274,243.933807 82.622322,249.464859 82.961029,255.170837 
	C83.029892,256.330872 83.188393,257.567261 82.871384,258.640167 
	C82.655869,259.369568 81.684578,260.344788 81.048912,260.346558 
	C80.435669,260.348175 79.300003,259.254028 79.285324,258.620667 
	C79.148682,252.720779 79.204445,246.816437 79.204445,241.477921 
	C82.253906,241.075333 84.332268,240.589752 86.408424,240.599030 
	C87.859909,240.605499 89.308380,241.288696 90.769257,242.057083 
z"/>
<path fill="#313131" opacity="1.000000" stroke="none" 
	d="
M544.056519,248.632217 
	C543.999268,252.059189 544.107849,255.058090 543.890808,258.033264 
	C543.828735,258.883759 542.822937,259.665405 542.249878,260.478638 
	C541.578308,259.746521 540.345520,259.030273 540.324341,258.279755 
	C540.161865,252.531265 540.235046,246.776093 540.235046,241.599792 
	C543.345154,241.113449 545.585449,240.559601 547.840881,240.489029 
	C549.130554,240.448685 550.444885,241.194824 551.748108,241.586838 
	C550.838135,242.384140 549.933411,243.187531 549.017151,243.977478 
	C547.381348,245.387680 545.738586,246.789703 544.056519,248.632217 
z"/>
<path fill="#2C2C2C" opacity="1.000000" stroke="none" 
	d="
M311.455566,241.419678 
	C314.565460,241.146576 317.675354,240.873474 321.578064,240.530746 
	C321.578064,239.022247 321.408844,236.605515 321.675598,234.237900 
	C321.761749,233.473282 322.993469,232.837708 323.701172,232.143112 
	C324.198944,232.864807 325.130646,233.587921 325.128296,234.308014 
	C325.100494,242.864777 324.933533,251.421082 324.420929,259.564545 
	C324.038757,250.763809 324.038757,242.376053 324.038757,234.180862 
	C322.888702,237.977509 321.735413,241.784897 320.252441,245.394989 
	C318.255219,244.593994 316.587677,243.990295 314.824097,243.102875 
	C313.844238,242.572510 312.960449,242.325882 311.922272,241.913513 
	C311.767914,241.747787 311.455566,241.419693 311.455566,241.419678 
z"/>
<path fill="#252525" opacity="1.000000" stroke="none" 
	d="
M484.255096,282.640015 
	C483.014282,280.933838 482.157562,279.279175 481.300842,277.624512 
	C482.905273,277.067413 484.581757,275.946716 486.090332,276.139526 
	C487.208069,276.282410 488.107544,278.132965 489.104248,279.222809 
	C487.615906,280.379059 486.127533,281.535309 484.255096,282.640015 
z"/>
<path fill="#060606" opacity="1.000000" stroke="none" 
	d="
M320.582123,245.592285 
	C321.735413,241.784897 322.888702,237.977509 324.038757,234.180862 
	C324.038757,242.376053 324.038757,250.763809 324.033356,259.626953 
	C323.846161,260.167236 323.664337,260.232117 323.256927,259.753754 
	C321.704620,258.477234 320.377930,257.743958 319.248138,256.718353 
	C322.770355,253.124023 322.230377,249.416306 320.582123,245.592285 
z"/>
<path fill="#C5C5C5" opacity="1.000000" stroke="none" 
	d="
M545.966553,298.949341 
	C544.147766,299.569855 542.411377,299.713776 540.806152,300.250427 
	C537.849487,301.238892 535.613281,300.983551 534.182739,296.375519 
	C538.824890,296.375519 543.006226,296.375519 547.657471,296.319824 
	C547.454285,297.059357 546.781128,297.854614 545.966553,298.949341 
z"/>
<path fill="#060606" opacity="1.000000" stroke="none" 
	d="
M309.584991,258.282318 
	C305.571777,254.010239 306.135895,249.272415 308.854309,244.195129 
	C310.131134,244.491425 310.724518,244.977539 311.209290,245.826920 
	C311.319092,249.489700 311.537567,252.789200 311.480225,256.534058 
	C310.664612,257.413696 310.124786,257.848022 309.584991,258.282318 
z"/>
<path fill="#2C2C2C" opacity="1.000000" stroke="none" 
	d="
M309.748199,258.622192 
	C310.124786,257.848022 310.664612,257.413696 311.853455,256.715210 
	C314.685425,256.637573 316.868347,256.824127 319.051239,257.010681 
	C320.377930,257.743958 321.704620,258.477234 323.020142,259.587128 
	C321.643433,260.015167 320.277893,260.066559 318.450195,259.810120 
	C316.918365,259.802460 315.848633,260.102661 314.778931,260.402893 
	C313.156433,259.922607 311.533905,259.442352 309.748199,258.622192 
z"/>
<path fill="#C5C5C5" opacity="1.000000" stroke="none" 
	d="
M520.887573,293.033112 
	C517.984192,292.798065 515.241455,292.249573 511.384735,291.478271 
	C515.554810,287.291626 518.350952,290.203552 521.527222,290.788574 
	C521.615845,291.454376 521.332031,292.087006 520.887573,293.033112 
z"/>
<path fill="#282828" opacity="1.000000" stroke="none" 
	d="
M368.677673,247.399750 
	C369.178955,251.030228 369.572418,255.112549 369.972961,259.663025 
	C369.495850,257.997925 368.838318,255.885468 368.579193,253.725204 
	C368.347595,251.794739 368.555756,249.811523 368.677673,247.399750 
z"/>
<path fill="#282828" opacity="1.000000" stroke="none" 
	d="
M362.687073,240.684113 
	C360.672028,241.216690 358.292542,241.664017 355.566010,242.067383 
	C355.997498,241.670334 356.746460,241.135498 357.560852,241.003006 
	C359.128540,240.747971 360.733276,240.720612 362.687073,240.684113 
z"/>
<path fill="#2C2C2C" opacity="1.000000" stroke="none" 
	d="
M311.317902,245.463654 
	C310.724518,244.977539 310.131134,244.491425 309.142456,243.934387 
	C309.436737,243.086334 310.126312,242.309250 311.135712,241.475922 
	C311.455566,241.419693 311.767914,241.747787 311.885986,242.205505 
	C312.345642,243.114212 312.687195,243.565231 312.916199,244.287415 
	C312.308380,244.860275 311.813141,245.161957 311.317902,245.463654 
z"/>
<path fill="#3A3A3A" opacity="1.000000" stroke="none" 
	d="
M141.795944,241.174713 
	C141.315140,241.666809 140.734360,241.907654 139.907043,242.131714 
	C140.338989,241.717773 141.017471,241.320633 141.795944,241.174713 
z"/>
<path fill="#3A3A3A" opacity="1.000000" stroke="none" 
	d="
M146.814087,240.605713 
	C146.287964,241.173843 145.481262,241.629684 144.371948,242.059006 
	C144.890747,241.519470 145.712128,241.006439 146.814087,240.605713 
z"/>
<path fill="#060606" opacity="1.000000" stroke="none" 
	d="
M315.186890,260.509338 
	C315.848633,260.102661 316.918365,259.802460 318.010315,259.809326 
	C317.220001,260.282898 316.407440,260.449371 315.186890,260.509338 
z"/>
<path fill="#3A3A3A" opacity="1.000000" stroke="none" 
	d="
M142.895950,248.720673 
	C142.758926,248.293533 142.788254,247.648193 143.056595,246.948105 
	C143.217834,247.429733 143.140076,247.966110 142.895950,248.720673 
z"/>
<path fill="#282828" opacity="1.000000" stroke="none" 
	d="
M368.497589,241.391998 
	C367.876617,241.541809 367.066193,241.437714 366.100830,241.048950 
	C366.733307,240.888870 367.520721,241.013489 368.497589,241.391998 
z"/>
<path fill="#3A3A3A" opacity="1.000000" stroke="none" 
	d="
M152.414093,241.350311 
	C151.807526,241.487717 151.004288,241.383545 150.050339,240.993164 
	C150.672226,240.840881 151.444809,240.974823 152.414093,241.350311 
z"/>
<path fill="#FDFBFB" opacity="1.000000" stroke="none" 
	d="
M152.672592,133.455811 
	C149.649368,136.804901 146.660828,139.697952 143.393311,142.874146 
	C138.832367,143.122177 134.550415,143.087067 129.831757,143.030090 
	C126.490967,140.014526 123.586876,137.020828 120.379250,133.850708 
	C120.104843,129.418030 120.133972,125.161758 120.170815,120.441071 
	C123.167824,117.072044 126.157112,114.167435 129.400269,110.957153 
	C133.774658,110.671471 137.895218,110.691460 142.465988,110.652878 
	C146.026855,113.659897 149.137512,116.725502 152.522797,119.974976 
	C152.767395,124.439156 152.737350,128.719467 152.672592,133.455811 
z"/>
<path fill="#E3E3E3" opacity="1.000000" stroke="none" 
	d="
M423.541565,299.565613 
	C423.136749,297.791626 423.043884,296.330383 422.907288,294.180817 
	C425.183868,294.180817 427.215363,293.795746 428.984283,294.311401 
	C430.237061,294.676575 431.134796,296.259766 432.191040,297.299255 
	C431.061646,298.247009 430.062958,299.654175 428.768646,300.022369 
	C427.265564,300.450012 425.503265,299.966431 423.541565,299.565613 
z"/>
<path fill="#EDEDED" opacity="1.000000" stroke="none" 
	d="
M423.401245,284.284576 
	C425.026947,283.868073 426.471863,283.402863 427.627045,283.793762 
	C429.071350,284.282440 430.277435,285.475159 431.586334,286.363953 
	C430.284393,287.302734 429.092560,288.521393 427.645294,289.090820 
	C426.510529,289.537231 425.059692,289.180328 423.091888,289.180328 
	C423.091888,287.449493 423.091888,286.032654 423.401245,284.284576 
z"/>
<path fill="#E3E3E3" opacity="1.000000" stroke="none" 
	d="
M462.320862,288.610596 
	C462.310486,286.897003 462.310486,285.616058 462.310486,282.798370 
	C465.525116,283.956116 468.084534,284.660706 470.345032,285.907288 
	C470.718719,286.113342 470.229797,289.564667 469.368500,290.003662 
	C467.082489,291.168945 464.238220,292.367981 462.320862,288.610596 
z"/>
<path fill="#E3E3E3" opacity="1.000000" stroke="none" 
	d="
M340.947693,243.685272 
	C342.878723,244.915024 344.382782,246.108795 345.886810,247.302567 
	C345.689850,247.704636 345.492920,248.106689 345.295959,248.508759 
	C341.966095,248.508759 338.636261,248.508759 335.120758,248.508759 
	C335.193665,245.040192 337.383240,243.848343 340.947693,243.685272 
z"/>
<path fill="#E3E3E3" opacity="1.000000" stroke="none" 
	d="
M98.330666,255.824432 
	C100.721008,253.872208 103.243874,252.326111 106.324654,250.438110 
	C106.832863,257.156891 103.880920,258.737793 98.330666,255.824432 
z"/>
<path fill="#E3E3E3" opacity="1.000000" stroke="none" 
	d="
M446.676666,248.771225 
	C446.007721,245.238678 448.103455,243.898453 450.980560,243.682480 
	C454.273163,243.435287 456.085754,245.218399 456.660706,248.912308 
	C453.267303,248.912308 450.173676,248.912308 446.676666,248.771225 
z"/>
<path fill="#EDEDED" opacity="1.000000" stroke="none" 
	d="
M527.416504,244.071167 
	C528.399963,244.787064 529.187256,245.238037 529.578918,245.917145 
	C531.585999,249.396835 531.864136,253.200775 528.835693,255.887833 
	C527.410706,257.152191 524.000427,257.483337 522.153809,256.690582 
	C518.559753,255.147629 518.458313,251.420242 519.351318,248.082169 
	C520.381958,244.229797 523.208252,242.970718 527.416504,244.071167 
z"/>
<path fill="#F0F0F0" opacity="1.000000" stroke="none" 
	d="
M311.209290,245.826904 
	C311.813141,245.161957 312.308380,244.860275 313.246735,244.231201 
	C314.099945,243.731400 314.510040,243.558990 314.920135,243.386597 
	C316.587677,243.990295 318.255219,244.593994 320.252441,245.394989 
	C322.230377,249.416306 322.770355,253.124023 319.248138,256.718353 
	C316.868347,256.824127 314.685425,256.637573 312.129272,256.269867 
	C311.537567,252.789200 311.319092,249.489700 311.209290,245.826904 
z"/>
<path fill="#060606" opacity="1.000000" stroke="none" 
	d="
M314.824097,243.102859 
	C314.510040,243.558990 314.099945,243.731400 313.359314,243.960022 
	C312.687195,243.565231 312.345642,243.114212 312.040344,242.371216 
	C312.960449,242.325882 313.844238,242.572510 314.824097,243.102859 
z"/>
</svg>